<?xml version="1.0" encoding="utf-8"?>
<!-- Generator: Adobe Illustrator 26.0.3, SVG Export Plug-In . SVG Version: 6.00 Build 0)  -->
<svg version="1.1" id="Layer_1" xmlns="http://www.w3.org/2000/svg" xmlns:xlink="http://www.w3.org/1999/xlink" x="0px" y="0px"
	 viewBox="0 0 395 182" style="enable-background:new 0 0 395 182;" xml:space="preserve">
<style type="text/css">
	.st0{fill:#ED1C24;}
</style>
<g>
	<g>
		<path class="st0" d="M87.1,52.5H51.6v80.4H111l-19.2-33c10.8-2.3,19.2-11.5,19.2-23.4C111,63.2,100.3,52.5,87.1,52.5"/>
	</g>
	<polygon class="st0" points="279.8,132.9 343.4,132.9 320,92.7 343.4,52.5 279.8,52.5 	"/>
	<g>
		<path class="st0" d="M155,50.2c-23.5,0-42.5,19-42.5,42.5s19,42.5,42.5,42.5s42.5-19,42.5-42.5S178.5,50.2,155,50.2"/>
		<path class="st0" d="M243.8,50.2c-11.7,0-22.3,4.8-30,12.4c-7.7,7.7-12.4,18.3-12.4,30c0,11.7,4.8,22.3,12.4,30
			c7.7,7.7,18.3,12.4,30,12.4c11.7,0,22.3-4.8,30-12.4l-17.4-30l17.4-30C266.1,55,255.5,50.2,243.8,50.2"/>
	</g>
</g>
</svg>
